<svg xmlns="http://www.w3.org/2000/svg" viewBox="0 0 600 430" fill="none">
<defs><linearGradient id="sky" x2="0" y2="430" gradientUnits="userSpaceOnUse"><stop stop-color="#fff4df"/><stop offset="1" stop-color="#f9d3ae"/></linearGradient><linearGradient id="car" x2="0" y2="100"><stop stop-color="#ffac51"/><stop offset="1" stop-color="#e87722"/></linearGradient></defs>
<rect width="600" height="430" rx="32" fill="url(#sky)"/>
<circle cx="446" cy="98" r="57" fill="#ffbc6d"/>
<path d="M0 231 137 112 269 240 360 165 600 277V430H0Z" fill="#ecd3b8"/>
<path d="m0 287 170-91 192 98 135-83 103 64v155H0Z" fill="#d5b79b"/>
<path d="M311 236C100 290 546 297 301 430" stroke="#fffaf3" stroke-width="113"/>
<path d="M311 236C100 290 546 297 301 430" stroke="#8b8078" stroke-width="90"/>
<path d="M311 236C100 290 546 297 301 430" stroke="#fff6e9" stroke-width="3" stroke-dasharray="15 15"/>
<ellipse cx="292" cy="346" rx="124" ry="15" fill="#564c42" opacity=".2"/>
<g transform="translate(156 235)">
<path d="m20 51 37-13 36-35h83l44 38 29 10q11 5 11 19v21H7V70q0-12 13-19Z" fill="url(#car)" stroke="#be5d1d" stroke-width="2"/>
<path d="m73 37 28-27h68l32 27Z" fill="#494f50"/><path d="M141 10v27" stroke="#ffae61" stroke-width="5"/>
<path d="M16 59h25l-5 13H11m232-14h-24l7 13h25" fill="#fff6dc"/>
<path d="M110 53h14m42 0h14" stroke="#974917" stroke-width="4" stroke-linecap="round"/>
<circle cx="64" cy="91" r="26" fill="#333436"/><circle cx="64" cy="91" r="14" fill="#d7d7d4"/><circle cx="204" cy="91" r="26" fill="#333436"/><circle cx="204" cy="91" r="14" fill="#d7d7d4"/>
</g>
<g transform="translate(94 91)"><path d="M0 23a23 23 0 1 1 46 0c0 18-23 39-23 39S0 41 0 23Z" fill="#e87722"/><circle cx="23" cy="23" r="8" fill="white"/></g>
<path d="M46 359v-58m-18 28 18-43 19 43m438-79v-50m-17 28 17-40 18 40" stroke="#8b987c" stroke-width="9" stroke-linecap="round"/>
</svg>
